<svg xmlns="http://www.w3.org/2000/svg" xmlns:xlink="http://www.w3.org/1999/xlink" width="100" height="100" viewBox="0 0 100 100">
  <defs>
    <clipPath id="clip-path">
      <rect id="Rectangle_1786" data-name="Rectangle 1786" width="48.053" height="48" fill="#fff"/>
    </clipPath>
  </defs>
  <g id="Groupe_600" data-name="Groupe 600" transform="translate(-520 -699)">
    <circle id="Ellipse_131" data-name="Ellipse 131" cx="50" cy="50" r="50" transform="translate(520 699)" fill="#0096c8"/>
    <g id="Groupe_599" data-name="Groupe 599" transform="translate(546.974 723.996)">
      <g id="Groupe_598" data-name="Groupe 598" transform="translate(0 0.004)" clip-path="url(#clip-path)">
        <path id="Tracé_584" data-name="Tracé 584" d="M45.022,33.252,36.206,30.79a3.68,3.68,0,0,0-.514-.107c-.068-.009-.145-.018-.228-.027a3.879,3.879,0,0,0-3.032,1.032l-2.706,2.526c-.047.045-.095.09-.139.137a2.155,2.155,0,0,1-2.976.036c-.05-.035-.1-.069-.151-.1A50.092,50.092,0,0,1,13.367,21.122a2.005,2.005,0,0,1,.115-2.435s2.433-2.571,2.908-3.07c.038-.04.076-.078.115-.117.2-.2,1.159-1.283.63-3.579L14.83,3.21a3.826,3.826,0,0,0-.724-1.438A3.619,3.619,0,0,0,11.946.434c-.058-.01-.116-.02-.174-.033A15.537,15.537,0,0,0,7.417.057a3.779,3.779,0,0,0-1.23.38A11.17,11.17,0,0,0,0,10.511,30.289,30.289,0,0,0,1.346,18.7,37.407,37.407,0,0,0,7.651,30.119s6.4,8.373,14.848,13.413a43.534,43.534,0,0,0,10.142,4.061s4.8,1.134,8.631-.365c0,0,4.83-1.667,6.512-5.868a3.73,3.73,0,0,0,.264-1.27,14.453,14.453,0,0,0-.527-3.973s-.634-2.365-2.5-2.864" transform="translate(0 -0.004)" fill="#fff"/>
      </g>
    </g>
  </g>
</svg>
